<?plantuml 1.2026.2?><svg xmlns="http://www.w3.org/2000/svg" xmlns:xlink="http://www.w3.org/1999/xlink" contentStyleType="text/css" data-diagram-type="STATE" height="490px" preserveAspectRatio="none" style="width:578px;height:490px;background:#FFFFFF;" version="1.1" viewBox="0 0 578 490" width="578px" zoomAndPan="magnify"><defs/><g><path d="M19.5,7 L552.9307,7 A12.5,12.5 0 0 1 565.4307,19.5 L565.4307,33.2969 L7,33.2969 L7,19.5 A12.5,12.5 0 0 1 19.5,7" fill="#E4E4E4"/><rect fill="none" height="477.2969" rx="12.5" ry="12.5" style="stroke:#874787;stroke-width:2;" width="558.4307" x="7" y="7"/><line style="stroke:#874787;stroke-width:2;" x1="7" x2="565.4307" y1="33.2969" y2="33.2969"/><text fill="#262626" font-family="'Monospaced'" font-size="14" lengthAdjust="spacing" textLength="219.1465" x="176.6421" y="24.9951">Run TopLevel Function Flow</text><!--cluster ColorClock--><g class="cluster" data-qualified-name="top_level_run.ColorClock" data-source-line="20" id="ent0005"><path d="M186.5,233.2969 L373.5,233.2969 A12.5,12.5 0 0 1 386,245.7969 L386,254.5938 L174,254.5938 L174,245.7969 A12.5,12.5 0 0 1 186.5,233.2969" fill="#E4E4E4"/><rect fill="none" height="241" rx="12.5" ry="12.5" style="stroke:#874787;stroke-width:2;" width="212" x="174" y="233.2969"/><line style="stroke:#874787;stroke-width:2;" x1="174" x2="386" y1="254.5938" y2="254.5938"/><text fill="#262626" font-family="'Monospaced'" font-size="14" lengthAdjust="spacing" textLength="84.2871" x="237.8564" y="250.292">ColorClock</text></g><g class="entity" data-qualified-name="top_level_run.ColorClock.time_to_color" id="ent0006"><rect fill="#E4E4E4" height="68.8906" rx="12.5" ry="12.5" style="stroke:#874787;stroke-width:2;" width="154.8594" x="206.5" y="276.2969"/><line style="stroke:#874787;stroke-width:2;" x1="206.5" x2="361.3594" y1="302.5938" y2="302.5938"/><text fill="#262626" font-family="'Monospaced'" font-size="14" lengthAdjust="spacing" textLength="109.5732" x="229.1431" y="294.292">time_to_color</text><text fill="#262626" font-family="'Monospaced'" font-size="14" lengthAdjust="spacing" textLength="134.8594" x="211.5" y="320.5889">Map current time</text><text fill="#262626" font-family="'Monospaced'" font-size="14" lengthAdjust="spacing" textLength="109.5732" x="211.5" y="336.8857">to RGB values</text></g><g class="entity" data-qualified-name="top_level_run.ColorClock.write_rgb" id="ent0007"><rect fill="#E4E4E4" height="68.8906" rx="12.5" ry="12.5" style="stroke:#874787;stroke-width:2;" width="154.8594" x="206.5" y="381.2969"/><line style="stroke:#874787;stroke-width:2;" x1="206.5" x2="361.3594" y1="407.5938" y2="407.5938"/><text fill="#262626" font-family="'Monospaced'" font-size="14" lengthAdjust="spacing" textLength="75.8584" x="246.0005" y="399.292">write_rgb</text><text fill="#262626" font-family="'Monospaced'" font-size="14" lengthAdjust="spacing" textLength="134.8594" x="211.5" y="425.5889">Write RGB values</text><text fill="#262626" font-family="'Monospaced'" font-size="14" lengthAdjust="spacing" textLength="118.002" x="211.5" y="441.8857">to output pins</text></g><path d="M31.5,45.2969 L154.502,45.2969 A12.5,12.5 0 0 1 167.002,57.7969 L167.002,71.5938 L19,71.5938 L19,57.7969 A12.5,12.5 0 0 1 31.5,45.2969" fill="#E4E4E4"/><rect fill="none" height="164.2969" rx="12.5" ry="12.5" style="stroke:#874787;stroke-width:2;" width="148.002" x="19" y="45.2969"/><line style="stroke:#874787;stroke-width:2;" x1="19" x2="167.002" y1="71.5938" y2="71.5938"/><text fill="#262626" font-family="'Monospaced'" font-size="14" lengthAdjust="spacing" textLength="109.5732" x="38.2144" y="63.292">Run User Ctrl</text><rect fill="#E4E4E4" height="40" rx="12.5" ry="12.5" style="stroke:#874787;stroke-width:2;" width="128.002" x="31" y="83.5938"/><text fill="#262626" font-family="'Monospaced'" font-size="14" lengthAdjust="spacing" textLength="118.002" x="36" y="108.4404">get_user_input</text><rect fill="#E4E4E4" height="40" rx="12.5" ry="12.5" style="stroke:#874787;stroke-width:2;" width="128.002" x="31" y="159.5938"/><text fill="#262626" font-family="'Monospaced'" font-size="14" lengthAdjust="spacing" textLength="118.002" x="36" y="184.4404">mod_colorclock</text><!--link get_user_input to mod_colorclock--><g class="link" data-entity-1="ent0002" data-entity-2="ent0003" data-link-type="dependency" data-source-line="12" id="lnk4"><path d="M95,123.9638 C95,134.9538 95,142.4738 95,153.4338" fill="none" id="get_user_input-to-mod_colorclock" style="stroke:#4E4E4E;stroke-width:1;"/><polygon fill="#4E4E4E" points="95,159.4338,99,150.4338,95,154.4338,91,150.4338,95,159.4338" style="stroke:#4E4E4E;stroke-width:1;"/></g><g class="entity" data-qualified-name="top_level_run.iterate" id="ent0004"><rect fill="#E4E4E4" height="68.8906" rx="12.5" ry="12.5" style="stroke:#874787;stroke-width:2;" width="197.0029" x="185.5" y="92.7969"/><line style="stroke:#874787;stroke-width:2;" x1="185.5" x2="382.5029" y1="119.0938" y2="119.0938"/><text fill="#262626" font-family="'Monospaced'" font-size="14" lengthAdjust="spacing" textLength="59.001" x="254.501" y="110.792">iterate</text><text fill="#262626" font-family="'Monospaced'" font-size="14" lengthAdjust="spacing" textLength="177.0029" x="190.5" y="137.0889">Iterate through array</text><text fill="#262626" font-family="'Monospaced'" font-size="14" lengthAdjust="spacing" textLength="177.0029" x="190.5" y="153.3857">of ColorClock objects</text></g><g class="entity" data-qualified-name="top_level_run.state_machine" id="ent0008"><rect fill="#E4E4E4" height="68.8906" rx="12.5" ry="12.5" style="stroke:#874787;stroke-width:2;" width="146.4307" x="410" y="276.2969"/><line style="stroke:#874787;stroke-width:2;" x1="410" x2="556.4307" y1="302.5938" y2="302.5938"/><text fill="#262626" font-family="'Monospaced'" font-size="14" lengthAdjust="spacing" textLength="109.5732" x="428.4287" y="294.292">State Machine</text><text fill="#262626" font-family="'Monospaced'" font-size="14" lengthAdjust="spacing" textLength="126.4307" x="415" y="320.5889">Determine if in</text><text fill="#262626" font-family="'Monospaced'" font-size="14" lengthAdjust="spacing" textLength="118.002" x="415" y="336.8857">time set state</text></g><!--link user_ctrl_run to iterate--><g class="link" data-entity-1="ent0003" data-entity-2="ent0004" data-link-type="dependency" data-source-line="15" id="lnk5"><path d="M167.12,127.2969 C173.1,127.2969 173.19,127.2969 179.3,127.2969" fill="none" id="user_ctrl_run-to-iterate" style="stroke:#4E4E4E;stroke-width:1;"/><polygon fill="#4E4E4E" points="185.3,127.2969,176.3,123.2969,180.3,127.2969,176.3,131.2969,185.3,127.2969" style="stroke:#4E4E4E;stroke-width:1;"/></g><!--link iterate to time_to_color--><g class="link" data-entity-1="ent0004" data-entity-2="ent0006" data-link-type="dependency" data-source-line="18" id="lnk6"><path d="M284,161.8069 C284,194.5169 284,237.3669 284,270.1269" fill="none" id="iterate-to-time_to_color" style="stroke:#4E4E4E;stroke-width:1;"/><polygon fill="#4E4E4E" points="284,276.1269,288,267.1269,284,271.1269,280,267.1269,284,276.1269" style="stroke:#4E4E4E;stroke-width:1;"/></g><!--link time_to_color to write_rgb--><g class="link" data-entity-1="ent0006" data-entity-2="ent0007" data-link-type="dependency" data-source-line="23" id="lnk7"><path d="M284,345.4669 C284,356.9369 284,363.6969 284,375.1569" fill="none" id="time_to_color-to-write_rgb" style="stroke:#4E4E4E;stroke-width:1;"/><polygon fill="#4E4E4E" points="284,381.1569,288,372.1569,284,376.1569,280,372.1569,284,381.1569" style="stroke:#4E4E4E;stroke-width:1;"/></g><!--link ColorClock to state_machine--><g class="link" data-entity-1="ent0005" data-entity-2="ent0008" data-link-type="dependency" data-source-line="28" id="lnk8"><path d="M386.1049,363.2969 C386.6583,363.2969 387.2106,363.2969 387.7617,363.2969 C405.3984,363.2969 421.8594,363.2969 435.9688,363.2969 C464.1875,363.2969 483,363.2969 483,363.2969 C483,363.2969 483,361.2869 483,351.5269" fill="none" id="ColorClock-to-state_machine" style="stroke:#4E4E4E;stroke-width:1;"/><polygon fill="#4E4E4E" points="483,345.5269,479,354.5269,483,350.5269,487,354.5269,483,345.5269" style="stroke:#4E4E4E;stroke-width:1;"/></g><?plantuml-src RLBDJWCX4Bxp56Cldke3UF1WJOs9lLIDboQ4qkakoi86XZQDwRixiBljRfGBpF3zp0pS6ATjsY54EbcyQrDZXRYDf0XXrcsDqhLnE0CLeMHadn6YnwsJWtVVlk81BIoJqsIyWwNrnnba5lbMsdmfGt83QvA47o40Hd8V4GCiADXYcpYIcgCYC00dMLO0NXMIB7dZsaGmdpz0utTIU-k3jbv_C-gSlQRaUJ1LJGmsX86rCw8_mZsyz2UgWqzL3Ie4TTfOluT5rbraNV3RBzGKHyHiVWNSaMbGakzgkROxakXQcE3OVQLQq2a4T5JkDfOyh9yVuQ1imbWuny2cCbJR733dCySZKE7uH7achN7n7wDSxKLcc5B_8czbMmqVuUzFW6bSQdX2daEJ8xC7uxW4zeE8r66PCshzyW1JtRFu1G00?></g></svg>